<mxfile host="app.diagrams.net" modified="2023-04-24T09:48:56.905Z" agent="Mozilla/5.0 (X11; Ubuntu; Linux x86_64; rv:88.0) Gecko/20100101 Firefox/88.0" etag="DD0V6zqDIVVAbP_Yaw44" version="21.2.1" type="google">
  <diagram id="R2lEEEUBdFMjLlhIrx00" name="Page-1">
    <mxGraphModel grid="1" page="1" gridSize="10" guides="1" tooltips="1" connect="1" arrows="1" fold="1" pageScale="1" pageWidth="850" pageHeight="1100" math="0" shadow="0" extFonts="Permanent Marker^https://fonts.googleapis.com/css?family=Permanent+Marker">
      <root>
        <mxCell id="0" />
        <mxCell id="1" parent="0" />
        <mxCell id="gtwi47PJ0OkwCl1kwxVX-32" style="rounded=0;orthogonalLoop=1;jettySize=auto;html=1;exitX=1;exitY=0.5;exitDx=0;exitDy=0;entryX=0;entryY=0;entryDx=0;entryDy=0;" edge="1" parent="1" source="gtwi47PJ0OkwCl1kwxVX-13" target="gtwi47PJ0OkwCl1kwxVX-39">
          <mxGeometry relative="1" as="geometry">
            <mxPoint x="315" y="450" as="targetPoint" />
          </mxGeometry>
        </mxCell>
        <mxCell id="gtwi47PJ0OkwCl1kwxVX-13" value="Name" style="ellipse;whiteSpace=wrap;html=1;" vertex="1" parent="1">
          <mxGeometry x="230" y="400" width="70" height="50" as="geometry" />
        </mxCell>
        <mxCell id="gtwi47PJ0OkwCl1kwxVX-33" style="rounded=0;orthogonalLoop=1;jettySize=auto;html=1;exitX=1;exitY=1;exitDx=0;exitDy=0;entryX=0.25;entryY=0;entryDx=0;entryDy=0;" edge="1" parent="1" source="gtwi47PJ0OkwCl1kwxVX-14" target="gtwi47PJ0OkwCl1kwxVX-39">
          <mxGeometry relative="1" as="geometry">
            <mxPoint x="345" y="450" as="targetPoint" />
          </mxGeometry>
        </mxCell>
        <mxCell id="gtwi47PJ0OkwCl1kwxVX-14" value="KTU ID" style="ellipse;whiteSpace=wrap;html=1;" vertex="1" parent="1">
          <mxGeometry x="260" y="340" width="70" height="50" as="geometry" />
        </mxCell>
        <mxCell id="gtwi47PJ0OkwCl1kwxVX-34" style="rounded=0;orthogonalLoop=1;jettySize=auto;html=1;exitX=0.5;exitY=1;exitDx=0;exitDy=0;entryX=0.5;entryY=0;entryDx=0;entryDy=0;" edge="1" parent="1" source="gtwi47PJ0OkwCl1kwxVX-15" target="gtwi47PJ0OkwCl1kwxVX-39">
          <mxGeometry relative="1" as="geometry">
            <mxPoint x="375" y="450" as="targetPoint" />
          </mxGeometry>
        </mxCell>
        <mxCell id="gtwi47PJ0OkwCl1kwxVX-15" value="Login ID" style="ellipse;whiteSpace=wrap;html=1;" vertex="1" parent="1">
          <mxGeometry x="340" y="360" width="70" height="50" as="geometry" />
        </mxCell>
        <mxCell id="gtwi47PJ0OkwCl1kwxVX-36" style="rounded=0;orthogonalLoop=1;jettySize=auto;html=1;exitX=0;exitY=0.5;exitDx=0;exitDy=0;entryX=1;entryY=0;entryDx=0;entryDy=0;" edge="1" parent="1" source="gtwi47PJ0OkwCl1kwxVX-18" target="gtwi47PJ0OkwCl1kwxVX-39">
          <mxGeometry relative="1" as="geometry">
            <mxPoint x="435" y="450" as="targetPoint" />
          </mxGeometry>
        </mxCell>
        <mxCell id="gtwi47PJ0OkwCl1kwxVX-18" value="DOB" style="ellipse;whiteSpace=wrap;html=1;" vertex="1" parent="1">
          <mxGeometry x="435" y="390" width="70" height="50" as="geometry" />
        </mxCell>
        <mxCell id="gtwi47PJ0OkwCl1kwxVX-38" style="rounded=0;orthogonalLoop=1;jettySize=auto;html=1;exitX=0;exitY=1;exitDx=0;exitDy=0;entryX=0.75;entryY=0;entryDx=0;entryDy=0;" edge="1" parent="1" source="gtwi47PJ0OkwCl1kwxVX-37" target="gtwi47PJ0OkwCl1kwxVX-39">
          <mxGeometry relative="1" as="geometry">
            <mxPoint x="405" y="450" as="targetPoint" />
          </mxGeometry>
        </mxCell>
        <mxCell id="gtwi47PJ0OkwCl1kwxVX-37" value="Ph no" style="ellipse;shape=doubleEllipse;margin=3;whiteSpace=wrap;html=1;align=center;" vertex="1" parent="1">
          <mxGeometry x="410" y="330" width="100" height="40" as="geometry" />
        </mxCell>
        <mxCell id="gtwi47PJ0OkwCl1kwxVX-73" style="edgeStyle=orthogonalEdgeStyle;rounded=0;orthogonalLoop=1;jettySize=auto;html=1;exitX=0;exitY=0.5;exitDx=0;exitDy=0;entryX=0.5;entryY=1;entryDx=0;entryDy=0;" edge="1" parent="1" source="gtwi47PJ0OkwCl1kwxVX-39" target="gtwi47PJ0OkwCl1kwxVX-69">
          <mxGeometry relative="1" as="geometry" />
        </mxCell>
        <mxCell id="gtwi47PJ0OkwCl1kwxVX-88" style="rounded=0;orthogonalLoop=1;jettySize=auto;html=1;exitX=1;exitY=1;exitDx=0;exitDy=0;entryX=0;entryY=0.5;entryDx=0;entryDy=0;" edge="1" parent="1" source="gtwi47PJ0OkwCl1kwxVX-39" target="gtwi47PJ0OkwCl1kwxVX-87">
          <mxGeometry relative="1" as="geometry" />
        </mxCell>
        <mxCell id="gtwi47PJ0OkwCl1kwxVX-39" value="S&lt;span style=&quot;white-space: pre;&quot;&gt;TUDENT&lt;/span&gt;" style="whiteSpace=wrap;html=1;align=center;" vertex="1" parent="1">
          <mxGeometry x="310" y="480" width="100" height="40" as="geometry" />
        </mxCell>
        <mxCell id="gtwi47PJ0OkwCl1kwxVX-49" style="rounded=0;orthogonalLoop=1;jettySize=auto;html=1;exitX=0.5;exitY=0;exitDx=0;exitDy=0;entryX=0;entryY=1;entryDx=0;entryDy=0;" edge="1" parent="1" source="gtwi47PJ0OkwCl1kwxVX-40" target="gtwi47PJ0OkwCl1kwxVX-39">
          <mxGeometry relative="1" as="geometry" />
        </mxCell>
        <mxCell id="gtwi47PJ0OkwCl1kwxVX-62" style="rounded=0;orthogonalLoop=1;jettySize=auto;html=1;exitX=1;exitY=0.5;exitDx=0;exitDy=0;entryX=0;entryY=1;entryDx=0;entryDy=0;" edge="1" parent="1" source="gtwi47PJ0OkwCl1kwxVX-40" target="gtwi47PJ0OkwCl1kwxVX-50">
          <mxGeometry relative="1" as="geometry" />
        </mxCell>
        <mxCell id="gtwi47PJ0OkwCl1kwxVX-40" value="Manages" style="shape=rhombus;perimeter=rhombusPerimeter;whiteSpace=wrap;html=1;align=center;" vertex="1" parent="1">
          <mxGeometry x="340" y="610" width="120" height="60" as="geometry" />
        </mxCell>
        <mxCell id="gtwi47PJ0OkwCl1kwxVX-48" style="rounded=0;orthogonalLoop=1;jettySize=auto;html=1;exitX=0.5;exitY=0;exitDx=0;exitDy=0;entryX=0.5;entryY=1;entryDx=0;entryDy=0;" edge="1" parent="1" source="gtwi47PJ0OkwCl1kwxVX-41" target="gtwi47PJ0OkwCl1kwxVX-40">
          <mxGeometry relative="1" as="geometry" />
        </mxCell>
        <mxCell id="gtwi47PJ0OkwCl1kwxVX-74" style="edgeStyle=orthogonalEdgeStyle;rounded=0;orthogonalLoop=1;jettySize=auto;html=1;exitX=0.25;exitY=0;exitDx=0;exitDy=0;entryX=0;entryY=0.5;entryDx=0;entryDy=0;" edge="1" parent="1" source="gtwi47PJ0OkwCl1kwxVX-41" target="gtwi47PJ0OkwCl1kwxVX-69">
          <mxGeometry relative="1" as="geometry">
            <Array as="points">
              <mxPoint x="195" y="680" />
              <mxPoint x="70" y="680" />
              <mxPoint x="70" y="290" />
            </Array>
          </mxGeometry>
        </mxCell>
        <mxCell id="gtwi47PJ0OkwCl1kwxVX-91" style="edgeStyle=orthogonalEdgeStyle;rounded=0;orthogonalLoop=1;jettySize=auto;html=1;exitX=0.5;exitY=1;exitDx=0;exitDy=0;entryX=0;entryY=0.5;entryDx=0;entryDy=0;" edge="1" parent="1" source="gtwi47PJ0OkwCl1kwxVX-41" target="gtwi47PJ0OkwCl1kwxVX-90">
          <mxGeometry relative="1" as="geometry" />
        </mxCell>
        <mxCell id="gtwi47PJ0OkwCl1kwxVX-41" value="ADMIN" style="whiteSpace=wrap;html=1;align=center;" vertex="1" parent="1">
          <mxGeometry x="170" y="780" width="100" height="40" as="geometry" />
        </mxCell>
        <mxCell id="gtwi47PJ0OkwCl1kwxVX-44" style="rounded=0;orthogonalLoop=1;jettySize=auto;html=1;exitX=0.5;exitY=1;exitDx=0;exitDy=0;entryX=0;entryY=0.25;entryDx=0;entryDy=0;" edge="1" parent="1" source="gtwi47PJ0OkwCl1kwxVX-42" target="gtwi47PJ0OkwCl1kwxVX-41">
          <mxGeometry relative="1" as="geometry" />
        </mxCell>
        <mxCell id="gtwi47PJ0OkwCl1kwxVX-42" value="Login ID" style="ellipse;whiteSpace=wrap;html=1;align=center;" vertex="1" parent="1">
          <mxGeometry x="60" y="760" width="100" height="40" as="geometry" />
        </mxCell>
        <mxCell id="gtwi47PJ0OkwCl1kwxVX-46" style="rounded=0;orthogonalLoop=1;jettySize=auto;html=1;exitX=0;exitY=1;exitDx=0;exitDy=0;entryX=1;entryY=0;entryDx=0;entryDy=0;" edge="1" parent="1" source="gtwi47PJ0OkwCl1kwxVX-43" target="gtwi47PJ0OkwCl1kwxVX-41">
          <mxGeometry relative="1" as="geometry" />
        </mxCell>
        <mxCell id="gtwi47PJ0OkwCl1kwxVX-43" value="Password" style="ellipse;whiteSpace=wrap;html=1;align=center;" vertex="1" parent="1">
          <mxGeometry x="310" y="730" width="100" height="40" as="geometry" />
        </mxCell>
        <mxCell id="gtwi47PJ0OkwCl1kwxVX-72" style="rounded=0;orthogonalLoop=1;jettySize=auto;html=1;exitX=0;exitY=0.5;exitDx=0;exitDy=0;entryX=1;entryY=0.5;entryDx=0;entryDy=0;" edge="1" parent="1" source="gtwi47PJ0OkwCl1kwxVX-50" target="gtwi47PJ0OkwCl1kwxVX-69">
          <mxGeometry relative="1" as="geometry" />
        </mxCell>
        <mxCell id="gtwi47PJ0OkwCl1kwxVX-85" style="rounded=0;orthogonalLoop=1;jettySize=auto;html=1;exitX=0.5;exitY=1;exitDx=0;exitDy=0;entryX=0.5;entryY=0;entryDx=0;entryDy=0;" edge="1" parent="1" source="gtwi47PJ0OkwCl1kwxVX-50" target="gtwi47PJ0OkwCl1kwxVX-84">
          <mxGeometry relative="1" as="geometry" />
        </mxCell>
        <mxCell id="gtwi47PJ0OkwCl1kwxVX-50" value="Tutor" style="whiteSpace=wrap;html=1;align=center;" vertex="1" parent="1">
          <mxGeometry x="610" y="300" width="100" height="40" as="geometry" />
        </mxCell>
        <mxCell id="gtwi47PJ0OkwCl1kwxVX-58" style="rounded=0;orthogonalLoop=1;jettySize=auto;html=1;exitX=0.5;exitY=1;exitDx=0;exitDy=0;entryX=0.25;entryY=0;entryDx=0;entryDy=0;" edge="1" parent="1" source="gtwi47PJ0OkwCl1kwxVX-52" target="gtwi47PJ0OkwCl1kwxVX-50">
          <mxGeometry relative="1" as="geometry" />
        </mxCell>
        <mxCell id="gtwi47PJ0OkwCl1kwxVX-52" value="KTU ID" style="ellipse;whiteSpace=wrap;html=1;" vertex="1" parent="1">
          <mxGeometry x="550" y="160" width="70" height="50" as="geometry" />
        </mxCell>
        <mxCell id="gtwi47PJ0OkwCl1kwxVX-60" style="rounded=0;orthogonalLoop=1;jettySize=auto;html=1;exitX=0;exitY=1;exitDx=0;exitDy=0;entryX=0.75;entryY=0;entryDx=0;entryDy=0;" edge="1" parent="1" source="gtwi47PJ0OkwCl1kwxVX-53" target="gtwi47PJ0OkwCl1kwxVX-50">
          <mxGeometry relative="1" as="geometry" />
        </mxCell>
        <mxCell id="gtwi47PJ0OkwCl1kwxVX-53" value="Login ID" style="ellipse;whiteSpace=wrap;html=1;" vertex="1" parent="1">
          <mxGeometry x="720" y="190" width="70" height="50" as="geometry" />
        </mxCell>
        <mxCell id="gtwi47PJ0OkwCl1kwxVX-61" style="rounded=0;orthogonalLoop=1;jettySize=auto;html=1;exitX=0;exitY=0.5;exitDx=0;exitDy=0;entryX=1;entryY=0;entryDx=0;entryDy=0;" edge="1" parent="1" source="gtwi47PJ0OkwCl1kwxVX-54" target="gtwi47PJ0OkwCl1kwxVX-50">
          <mxGeometry relative="1" as="geometry" />
        </mxCell>
        <mxCell id="gtwi47PJ0OkwCl1kwxVX-54" value="DOB" style="ellipse;whiteSpace=wrap;html=1;" vertex="1" parent="1">
          <mxGeometry x="730" y="270" width="70" height="50" as="geometry" />
        </mxCell>
        <mxCell id="gtwi47PJ0OkwCl1kwxVX-59" style="rounded=0;orthogonalLoop=1;jettySize=auto;html=1;exitX=0.5;exitY=1;exitDx=0;exitDy=0;" edge="1" parent="1" target="gtwi47PJ0OkwCl1kwxVX-50">
          <mxGeometry relative="1" as="geometry">
            <mxPoint x="679.9999999999998" y="180" as="sourcePoint" />
          </mxGeometry>
        </mxCell>
        <mxCell id="gtwi47PJ0OkwCl1kwxVX-55" value="Ph no" style="ellipse;shape=doubleEllipse;margin=3;whiteSpace=wrap;html=1;align=center;" vertex="1" parent="1">
          <mxGeometry x="630" y="140" width="100" height="40" as="geometry" />
        </mxCell>
        <mxCell id="gtwi47PJ0OkwCl1kwxVX-56" style="rounded=0;orthogonalLoop=1;jettySize=auto;html=1;exitX=1;exitY=1;exitDx=0;exitDy=0;entryX=0;entryY=0.25;entryDx=0;entryDy=0;" edge="1" parent="1" source="gtwi47PJ0OkwCl1kwxVX-57" target="gtwi47PJ0OkwCl1kwxVX-50">
          <mxGeometry relative="1" as="geometry">
            <mxPoint x="565" y="580" as="targetPoint" />
          </mxGeometry>
        </mxCell>
        <mxCell id="gtwi47PJ0OkwCl1kwxVX-57" value="Name" style="ellipse;whiteSpace=wrap;html=1;" vertex="1" parent="1">
          <mxGeometry x="510" y="230" width="70" height="50" as="geometry" />
        </mxCell>
        <mxCell id="gtwi47PJ0OkwCl1kwxVX-64" value="Login" style="whiteSpace=wrap;html=1;align=center;" vertex="1" parent="1">
          <mxGeometry x="60" y="160" width="100" height="40" as="geometry" />
        </mxCell>
        <mxCell id="gtwi47PJ0OkwCl1kwxVX-67" style="rounded=0;orthogonalLoop=1;jettySize=auto;html=1;exitX=0.5;exitY=1;exitDx=0;exitDy=0;entryX=0;entryY=0;entryDx=0;entryDy=0;" edge="1" parent="1" source="gtwi47PJ0OkwCl1kwxVX-65" target="gtwi47PJ0OkwCl1kwxVX-64">
          <mxGeometry relative="1" as="geometry" />
        </mxCell>
        <mxCell id="gtwi47PJ0OkwCl1kwxVX-65" value="Login ID" style="ellipse;whiteSpace=wrap;html=1;align=center;" vertex="1" parent="1">
          <mxGeometry x="10" y="50" width="100" height="40" as="geometry" />
        </mxCell>
        <mxCell id="gtwi47PJ0OkwCl1kwxVX-68" style="rounded=0;orthogonalLoop=1;jettySize=auto;html=1;exitX=0.5;exitY=1;exitDx=0;exitDy=0;entryX=0.25;entryY=0;entryDx=0;entryDy=0;" edge="1" parent="1" source="gtwi47PJ0OkwCl1kwxVX-66" target="gtwi47PJ0OkwCl1kwxVX-64">
          <mxGeometry relative="1" as="geometry" />
        </mxCell>
        <mxCell id="gtwi47PJ0OkwCl1kwxVX-66" value="Password" style="ellipse;whiteSpace=wrap;html=1;align=center;" vertex="1" parent="1">
          <mxGeometry x="110" y="70" width="100" height="40" as="geometry" />
        </mxCell>
        <mxCell id="gtwi47PJ0OkwCl1kwxVX-75" style="rounded=0;orthogonalLoop=1;jettySize=auto;html=1;exitX=0.5;exitY=0;exitDx=0;exitDy=0;entryX=0.586;entryY=1.051;entryDx=0;entryDy=0;entryPerimeter=0;" edge="1" parent="1" source="gtwi47PJ0OkwCl1kwxVX-69" target="gtwi47PJ0OkwCl1kwxVX-64">
          <mxGeometry relative="1" as="geometry" />
        </mxCell>
        <mxCell id="gtwi47PJ0OkwCl1kwxVX-69" value="HAS" style="shape=rhombus;perimeter=rhombusPerimeter;whiteSpace=wrap;html=1;align=center;" vertex="1" parent="1">
          <mxGeometry x="90" y="260" width="120" height="60" as="geometry" />
        </mxCell>
        <mxCell id="gtwi47PJ0OkwCl1kwxVX-76" value="Certificate" style="whiteSpace=wrap;html=1;align=center;" vertex="1" parent="1">
          <mxGeometry x="680" y="760" width="100" height="40" as="geometry" />
        </mxCell>
        <mxCell id="gtwi47PJ0OkwCl1kwxVX-81" style="rounded=0;orthogonalLoop=1;jettySize=auto;html=1;exitX=0.5;exitY=1;exitDx=0;exitDy=0;entryX=0;entryY=0;entryDx=0;entryDy=0;" edge="1" parent="1" source="gtwi47PJ0OkwCl1kwxVX-78" target="gtwi47PJ0OkwCl1kwxVX-76">
          <mxGeometry relative="1" as="geometry" />
        </mxCell>
        <mxCell id="gtwi47PJ0OkwCl1kwxVX-78" value="Event name" style="ellipse;whiteSpace=wrap;html=1;align=center;" vertex="1" parent="1">
          <mxGeometry x="570" y="710" width="100" height="40" as="geometry" />
        </mxCell>
        <mxCell id="gtwi47PJ0OkwCl1kwxVX-82" style="rounded=0;orthogonalLoop=1;jettySize=auto;html=1;exitX=0.5;exitY=0;exitDx=0;exitDy=0;entryX=0;entryY=1;entryDx=0;entryDy=0;" edge="1" parent="1" source="gtwi47PJ0OkwCl1kwxVX-79" target="gtwi47PJ0OkwCl1kwxVX-76">
          <mxGeometry relative="1" as="geometry" />
        </mxCell>
        <mxCell id="gtwi47PJ0OkwCl1kwxVX-79" value="Category" style="ellipse;whiteSpace=wrap;html=1;align=center;" vertex="1" parent="1">
          <mxGeometry x="570" y="860" width="100" height="40" as="geometry" />
        </mxCell>
        <mxCell id="gtwi47PJ0OkwCl1kwxVX-83" style="rounded=0;orthogonalLoop=1;jettySize=auto;html=1;exitX=0;exitY=0;exitDx=0;exitDy=0;entryX=0.386;entryY=1.051;entryDx=0;entryDy=0;entryPerimeter=0;" edge="1" parent="1" source="gtwi47PJ0OkwCl1kwxVX-80" target="gtwi47PJ0OkwCl1kwxVX-76">
          <mxGeometry relative="1" as="geometry" />
        </mxCell>
        <mxCell id="gtwi47PJ0OkwCl1kwxVX-80" value="Points" style="ellipse;whiteSpace=wrap;html=1;align=center;" vertex="1" parent="1">
          <mxGeometry x="725" y="860" width="100" height="40" as="geometry" />
        </mxCell>
        <mxCell id="gtwi47PJ0OkwCl1kwxVX-86" style="rounded=0;orthogonalLoop=1;jettySize=auto;html=1;exitX=0.5;exitY=1;exitDx=0;exitDy=0;entryX=0.75;entryY=0;entryDx=0;entryDy=0;" edge="1" parent="1" source="gtwi47PJ0OkwCl1kwxVX-84" target="gtwi47PJ0OkwCl1kwxVX-76">
          <mxGeometry relative="1" as="geometry" />
        </mxCell>
        <mxCell id="gtwi47PJ0OkwCl1kwxVX-84" value="Evaluate" style="shape=rhombus;perimeter=rhombusPerimeter;whiteSpace=wrap;html=1;align=center;" vertex="1" parent="1">
          <mxGeometry x="705" y="410" width="120" height="60" as="geometry" />
        </mxCell>
        <mxCell id="gtwi47PJ0OkwCl1kwxVX-89" style="rounded=0;orthogonalLoop=1;jettySize=auto;html=1;exitX=0.5;exitY=1;exitDx=0;exitDy=0;entryX=0.5;entryY=0;entryDx=0;entryDy=0;" edge="1" parent="1" source="gtwi47PJ0OkwCl1kwxVX-87" target="gtwi47PJ0OkwCl1kwxVX-76">
          <mxGeometry relative="1" as="geometry" />
        </mxCell>
        <mxCell id="gtwi47PJ0OkwCl1kwxVX-87" value="Upload" style="shape=rhombus;perimeter=rhombusPerimeter;whiteSpace=wrap;html=1;align=center;" vertex="1" parent="1">
          <mxGeometry x="560" y="550" width="120" height="60" as="geometry" />
        </mxCell>
        <mxCell id="gtwi47PJ0OkwCl1kwxVX-92" style="edgeStyle=orthogonalEdgeStyle;rounded=0;orthogonalLoop=1;jettySize=auto;html=1;exitX=0.5;exitY=0;exitDx=0;exitDy=0;entryX=0;entryY=0.75;entryDx=0;entryDy=0;" edge="1" parent="1" source="gtwi47PJ0OkwCl1kwxVX-90" target="gtwi47PJ0OkwCl1kwxVX-76">
          <mxGeometry relative="1" as="geometry" />
        </mxCell>
        <mxCell id="gtwi47PJ0OkwCl1kwxVX-90" value="Validate" style="shape=rhombus;perimeter=rhombusPerimeter;whiteSpace=wrap;html=1;align=center;" vertex="1" parent="1">
          <mxGeometry x="330" y="890" width="120" height="60" as="geometry" />
        </mxCell>
      </root>
    </mxGraphModel>
  </diagram>
</mxfile>
